#!OML:ASF H:\LiuWeirdWalks\Patient Classification 1\Patient 1\Session 1\male.ASF
:FULLY-SPECIFIED
:DEGREES
486
root 2.43645 18.0592 6.47527 -2.02152 -6.34886 4.60074
lowerback 5.15851 -0.316229 -5.84913
upperback -1.68943 -0.777382 1.22135
thorax -4.56601 -0.198884 4.63332
lowerneck -19.1489 3.46953 5.59052
upperneck 17.2735 3.86557 -3.29167
head 8.72717 1.83811 -1.52837
rclavicle 3.08116e-015 7.95139e-016
rhumerus -34.6714 -14.8431 -75.6335
rradius 24.3645
rwrist -2.864
rhand -14.1716 -2.84085
rfingers 7.12502
rthumb 11.9637 -32.479
lclavicle 3.08116e-015 7.95139e-016
lhumerus -32.4196 5.30525 83.7583
lradius 24.4608
lwrist -0.284202
lhand -9.80745 0.660364
lfingers 7.12502
lthumb 16.1691 30.006
rfemur -16.6181 -4.9685 11.911
rtibia 70.8294
rfoot -3.72706 -17.6662
rtoes -2.53954
lfemur -11.1207 3.47686 -26.459
ltibia 24.8598
lfoot -6.52921 7.21992
ltoes -8.60749
487
root 2.44705 18.0499 6.599 -1.96968 -6.10671 4.88718
lowerback 5.1861 -0.38756 -6.18063
upperback -1.66517 -0.899361 1.16788
thorax -4.53885 -0.252249 4.77571
lowerneck -19.1634 3.44735 5.52044
upperneck 17.2111 3.84823 -3.27044
head 8.70557 1.8272 -1.51186
rclavicle 3.95085e-015 -1.98785e-014
rhumerus -34.8209 -14.6277 -75.7229
rradius 24.8519
rwrist -3.69249
rhand -14.2965 -2.86383
rfingers 7.12502
rthumb 11.8432 -32.5089
lclavicle 3.95085e-015 -1.98785e-014
lhumerus -32.1218 4.22627 84.3324
lradius 25.2444
lwrist 0.368112
lhand -9.9984 0.552734
lfingers 7.12502
lthumb 15.9852 29.9132
rfemur -17.8605 -5.32515 11.8183
rtibia 70.6861
rfoot -4.56847 -17.7554
rtoes -3.00261
lfemur -10.7574 3.45897 -26.8639
ltibia 24.8552
lfoot -6.99532 7.15427
ltoes -8.58117
488
root 2.45635 18.0378 6.72118 -1.92145 -5.85615 5.15424
lowerback 5.23564 -0.453289 -6.49818
upperback -1.64074 -1.0143 1.11895
thorax -4.52392 -0.302133 4.91472
lowerneck -19.1933 3.42454 5.47051
upperneck 17.1677 3.82739 -3.26579
head 8.69382 1.81411 -1.5046
rclavicle 1.81888e-014 -1.59028e-015
rhumerus -34.9656 -14.3681 -75.8328
rradius 25.3327
rwrist -4.50197
rhand -14.4557 -2.92971
rfingers 7.12502
rthumb 11.6897 -32.5836
lclavicle 1.81888e-014 -1.59028e-015
lhumerus -31.8284 3.18253 84.8662
lradius 26.0521
lwrist 1.05239
lhand -10.2589 0.416138
lfingers 7.12502
lthumb 15.7343 29.7965
rfemur -19.0727 -5.65787 11.7632
rtibia 70.4206
rfoot -5.36993 -17.848
rtoes -3.5016
lfemur -10.4177 3.43612 -27.2395
ltibia 24.9072
lfoot -7.48807 7.09244
ltoes -8.53514
489
root 2.46445 18.0229 6.84181 -1.87308 -5.59906 5.41149
lowerback 5.29577 -0.513548 -6.8125
upperback -1.60622 -1.12239 1.07099
thorax -4.50434 -0.349237 5.0524
lowerneck -19.2297 3.39802 5.42896
upperneck 17.1037 3.79855 -3.26289
head 8.67601 1.79752 -1.50029
rclavicle -9.31803e-015 -1.51076e-014
rhumerus -35.0635 -14.1399 -75.9404
rradius 25.7431
rwrist -5.19059
rhand -14.6458 -2.94613
rfingers 7.12502
rthumb 11.5064 -32.6103
lclavicle -9.31803e-015 -1.51076e-014
lhumerus -31.5124 2.21135 85.3465
lradius 26.8722
lwrist 1.7289
lhand -10.5576 0.285192
lfingers 7.12502
lthumb 15.4466 29.688
rfemur -20.257 -5.96605 11.731
rtibia 70.0362
rfoot -6.13113 -17.935
rtoes -4.02189
lfemur -10.1043 3.41184 -27.5975
ltibia 25.0121
lfoot -8.01337 7.04103
ltoes -8.48859
490
root 2.47145 18.006 6.96168 -1.82704 -5.33745 5.63368
lowerback 5.36464 -0.570716 -7.09244
upperback -1.56238 -1.22432 1.02823
thorax -4.48021 -0.39474 5.17561
lowerneck -19.2588 3.38837 5.43546
upperneck 17.0165 3.78528 -3.28954
head 8.65141 1.78828 -1.51182
rclavicle -7.85199e-015 1.03368e-014
rhumerus -35.1163 -13.9195 -76.0627
rradius 26.0909
rwrist -5.79085
rhand -14.8636 -2.96541
rfingers 7.12502
rthumb 11.2963 -32.6412
lclavicle -7.85199e-015 1.03368e-014
lhumerus -31.1705 1.29402 85.7766
lradius 27.6763
lwrist 2.4079
lhand -10.9329 0.100499
lfingers 7.12502
lthumb 15.0851 29.5308
rfemur -21.4001 -6.24617 11.7453
rtibia 69.5278
rfoot -6.87123 -18.0238
rtoes -4.53794
lfemur -9.80739 3.38356 -27.9107
ltibia 25.1678
lfoot -8.57118 7.00102
ltoes -8.42292
491
root 2.47735 17.9876 7.08105 -1.779 -5.06488 5.82943
lowerback 5.42634 -0.627351 -7.34583
upperback -1.50587 -1.32267 0.990258
thorax -4.43868 -0.440366 5.28815
lowerneck -19.2587 3.37912 5.46477
upperneck 16.8977 3.77135 -3.3372
head 8.61181 1.77821 -1.53456
rclavicle 1.55549e-014 3.18055e-015
rhumerus -35.1239 -13.7116 -76.1917
rradius 26.373
rwrist -6.28816
rhand -15.0912 -2.93204
rfingers 7.12502
rthumb 11.0768 -32.6197
lclavicle 1.55549e-014 3.18055e-015
lhumerus -30.8051 0.439628 86.1602
lradius 28.4753
lwrist 3.07376
lhand -11.3301 -0.0759951
lfingers 7.12502
lthumb 14.7025 29.3827
rfemur -22.501 -6.50388 11.7935
rtibia 68.8979
rfoot -7.58954 -18.1082
rtoes -5.0447
lfemur -9.5249 3.35979 -28.1882
ltibia 25.3597
lfoot -9.15282 6.95242
ltoes -8.33658
492
root 2.48243 17.9686 7.20062 -1.72699 -4.79374 5.9924
lowerback 5.48722 -0.677498 -7.55995
upperback -1.45441 -1.40948 0.959866
thorax -4.40346 -0.480997 5.38548
lowerneck -19.2219 3.38101 5.52104
upperneck 16.752 3.77096 -3.40639
head 8.55829 1.77429 -1.56752
rclavicle -2.76808e-014 -1.51076e-014
rhumerus -35.1352 -13.4928 -76.317
rradius 26.6174
rwrist -6.69712
rhand -15.3106 -2.85201
rfingers 7.12502
rthumb 10.8652 -32.5509
lclavicle -2.76808e-014 -1.51076e-014
lhumerus -30.4453 -0.341864 86.5013
lradius 29.2666
lwrist 3.69973
lhand -11.7253 -0.23748
lfingers 7.12502
lthumb 14.3217 29.2486
rfemur -23.5594 -6.72935 11.8768
rtibia 68.1435
rfoot -8.29081 -18.1881
rtoes -5.54269
lfemur -9.2494 3.33656 -28.4245
ltibia 25.5722
lfoot -9.75033 6.9057
ltoes -8.23011
